Coordinates
version=1
nRows=19
nColumns=38
inDegrees=no

Units are S.I. units (second, meters, Newtons, ...)
If the header above contains a line with 'inDegrees', this indicates whether rotational values are in degrees (yes) or radians (no).

endheader
time	pelvis_tilt	pelvis_list	pelvis_rotation	pelvis_tx	pelvis_ty	pelvis_tz	hip_flexion_r	hip_adduction_r	hip_rotation_r	knee_angle_r	ankle_angle_r	subtalar_angle_r	mtp_angle_r	hip_flexion_l	hip_adduction_l	hip_rotation_l	knee_angle_l	ankle_angle_l	subtalar_angle_l	mtp_angle_l	lumbar_extension	lumbar_bending	lumbar_rotation	arm_flex_r	arm_add_r	arm_rot_r	elbow_flex_r	pro_sup_r	wrist_flex_r	wrist_dev_r	arm_flex_l	arm_add_l	arm_rot_l	elbow_flex_l	pro_sup_l	wrist_flex_l	wrist_dev_l
0.08	-0.155429	0.0464192	0.0289386	0.899731	1.02127	-0.334367	0.362882	-0.0764587	-0.161546	-2.03998	0.0919477	-0.1	-0.00207031	0.545536	0.0640149	-0.410041	-0.556088	0.352597	0.1	-0.00152637	-0.0765504	-0.127272	0.0414653	-0.745368	-0.418365	-0.388774	1.85993	1.58048	5.73056e-06	8.11363e-06	-0.510549	-0.444892	-0.0808584	1.8706	1.43249	9.36602e-06	5.24658e-06
0.09	-0.173623	0.0473439	0.0385013	0.894244	1.01231	-0.334766	0.481646	-0.0889151	-0.157567	-2.1013	0.12446	-0.1	-0.00207031	0.557184	0.0649077	-0.38179	-0.63615	0.470677	0.1	-0.00152637	-0.068473	-0.129905	0.00191941	-0.73689	-0.423307	-0.424767	1.79002	1.56258	5.73056e-06	8.11363e-06	-0.46794	-0.455183	-0.078398	1.85589	1.43467	9.36602e-06	5.24658e-06
0.1	-0.189146	0.0432036	0.0466118	0.889846	1.00466	-0.334931	0.590634	-0.0946176	-0.154935	-2.14141	0.154879	-0.1	-0.00207031	0.556318	0.0601099	-0.358342	-0.69675	0.569369	0.1	-0.00152637	-0.0599631	-0.126035	-0.0349068	-0.731171	-0.426838	-0.454641	1.72926	1.54954	5.73056e-06	8.11363e-06	-0.428741	-0.459526	-0.076045	1.85118	1.43693	9.36602e-06	5.24658e-06
0.11	-0.201902	0.0340776	0.0531727	0.886442	0.998647	-0.335021	0.689623	-0.0936084	-0.153588	-2.1604	0.183173	-0.1	-0.00207031	0.542865	0.0496673	-0.339885	-0.737977	0.648277	0.1	-0.00152637	-0.0511089	-0.115729	-0.0688739	-0.728314	-0.42896	-0.478434	1.67774	1.54124	5.73056e-06	8.11363e-06	-0.392959	-0.457967	-0.0737006	1.85637	1.43944	9.36602e-06	5.24658e-06
0.12	-0.211676	0.02027	0.0579315	0.884043	0.994528	-0.335133	0.778029	-0.0860799	-0.153342	-2.15851	0.209185	-0.1	-0.00207031	0.516704	0.0338113	-0.326949	-0.760148	0.706294	0.1	-0.00152637	-0.0421443	-0.0992776	-0.0996228	-0.728577	-0.429672	-0.496258	1.63569	1.53726	5.73056e-06	8.11363e-06	-0.360622	-0.45069	-0.0710751	1.87117	1.44267	9.36602e-06	5.24658e-06
0.13	-0.218212	0.00244389	0.0605125	0.882714	0.992492	-0.335296	0.85498	-0.0725549	-0.153889	-2.13629	0.232656	-0.1	-0.00207031	0.477852	0.0131425	-0.320469	-0.763999	0.74171	0.1	-0.00152637	-0.0334162	-0.0773724	-0.126631	-0.732307	-0.428968	-0.508312	1.6034	1.53686	5.73056e-06	8.11363e-06	-0.331775	-0.438127	-0.0676601	1.89498	1.44734	9.36602e-06	5.24658e-06
0.14	-0.221369	-0.0183101	0.0605269	0.882519	0.992621	-0.335511	0.919551	-0.0540299	-0.15484	-2.09466	0.253237	-0.1	-0.00207031	0.42674	-0.0112149	-0.321612	-0.750815	0.752622	0.1	-0.00152637	-0.0252626	-0.0512308	-0.149366	-0.739803	-0.426824	-0.514906	1.58103	1.53917	5.73056e-06	8.11363e-06	-0.306491	-0.421019	-0.0627744	1.92683	1.45425	9.36602e-06	5.24658e-06
0.15	-0.221267	-0.0405233	0.0577075	0.88348	0.994847	-0.335772	0.971033	-0.0320037	-0.155831	-2.03483	0.270504	-0.1	-0.00207031	0.364462	-0.0376055	-0.331436	-0.722519	0.737573	0.1	-0.00152637	-0.0178736	-0.0225472	-0.167456	-0.751196	-0.423198	-0.516509	1.56848	1.5433	5.73056e-06	8.11363e-06	-0.284847	-0.400416	-0.0556566	1.96545	1.46411	9.36602e-06	5.24658e-06
0.16	-0.218355	-0.0625184	0.0520325	0.885553	0.998962	-0.33608	1.00914	-0.00837378	-0.156658	-1.95827	0.283938	-0.1	-0.00207031	0.292928	-0.0639908	-0.350429	-0.681718	0.696292	0.1	-0.00152637	-0.0111901	0.00671477	-0.180826	-0.766388	-0.418044	-0.513806	1.56524	1.54859	5.73056e-06	8.11363e-06	-0.26689	-0.377579	-0.0455765	2.00929	1.4774	9.36602e-06	5.24658e-06
0.17	-0.213382	-0.0826385	0.0438097	0.888633	1.00463	-0.336447	1.03408	0.0147574	-0.157402	-1.86653	0.292899	-0.1	-0.00207031	0.21487	-0.0882218	-0.3781	-0.631714	0.63035	0.1	-0.00152637	-0.00489376	0.0346137	-0.189762	-0.785047	-0.41133	-0.507755	1.57047	1.55463	5.73056e-06	8.11363e-06	-0.252571	-0.353853	-0.0319444	2.0567	1.49425	9.36602e-06	5.24658e-06
0.18	-0.207278	-0.0994511	0.0336942	0.892552	1.01142	-0.336898	1.04658	0.035315	-0.158487	-1.76117	0.296704	-0.1	-0.00207031	0.133684	-0.108355	-0.41276	-0.576492	0.543597	0.1	-0.00152637	0.00150287	0.0594857	-0.194895	-0.806642	-0.403039	-0.499562	1.58302	1.56118	5.73056e-06	8.11363e-06	-0.241684	-0.330529	-0.0144121	2.10594	1.51441	9.36602e-06	5.24658e-06
0.19	-0.200995	-0.111876	0.0226182	0.897088	1.01878	-0.337475	1.04771	0.0515124	-0.160607	-1.64377	0.294724	-0.1	-0.00207031	0.0531125	-0.122915	-0.451546	-0.520602	0.442176	0.1	-0.00152637	0.00849605	0.080097	-0.197095	-0.830466	-0.393149	-0.490588	1.60155	1.56812	5.73056e-06	8.11363e-06	-0.233818	-0.308751	0.00704261	2.15536	1.53729	9.36602e-06	5.24658e-06
0.2	-0.195335	-0.119245	0.0116317	0.901973	1.02616	-0.338235	1.03882	0.0621072	-0.16455	-1.51592	0.286533	-0.1	-0.00207031	-0.0231751	-0.13106	-0.490734	-0.468894	0.334015	0.1	-0.00152637	0.0164039	0.0956903	-0.1973	-0.855641	-0.381633	-0.482159	1.62464	1.57522	5.73056e-06	8.11363e-06	-0.228387	-0.289455	0.0320519	2.20341	1.56194	9.36602e-06	5.24658e-06
0.21	-0.1908	-0.121329	0.00169927	0.90692	1.03309	-0.33924	1.02132	0.0666165	-0.170978	-1.37943	0.272056	-0.1	-0.00207031	-0.092032	-0.132662	-0.526301	-0.426151	0.227905	0.1	-0.00152637	0.0252143	0.105979	-0.196345	-0.881128	-0.368482	-0.475369	1.65087	1.5821	5.73056e-06	8.11363e-06	-0.22472	-0.273328	0.0598278	2.24873	1.5872	9.36602e-06	5.24658e-06
0.22	-0.187504	-0.118343	-0.0064848	0.911661	1.03925	-0.340535	0.996543	0.065428	-0.180242	-1.23638	0.251652	-0.1	-0.00207031	-0.151191	-0.128267	-0.554548	-0.396623	0.132188	0.1	-0.00152637	0.034509	0.111129	-0.194823	-0.905737	-0.353771	-0.470891	1.6788	1.58818	5.73056e-06	8.11363e-06	-0.222208	-0.260776	0.0891788	2.29016	1.61176	9.36602e-06	5.24658e-06
0.23	-0.185167	-0.110938	-0.0126079	0.916006	1.04449	-0.342126	0.965664	0.0597646	-0.192295	-1.08934	0.226143	-0.1	-0.00207031	-0.199441	-0.119017	-0.572746	-0.383628	0.0533994	0.1	-0.00152637	0.0434943	0.11174	-0.193057	-0.928172	-0.337747	-0.468878	1.70705	1.59273	5.73056e-06	8.11363e-06	-0.220452	-0.251903	0.118591	2.32668	1.63436	9.36602e-06	5.24658e-06
0.24	-0.183216	-0.100157	-0.0167442	0.919857	1.04879	-0.343965	0.929702	0.05148	-0.206714	-0.9414	0.196732	-0.1	-0.00207031	-0.236573	-0.106476	-0.579429	-0.389257	-0.00480921	0.1	-0.00152637	0.0511428	0.108802	-0.191133	-0.947121	-0.320886	-0.468971	1.73433	1.59504	5.73056e-06	8.11363e-06	-0.219373	-0.24653	0.146375	2.35751	1.65386	9.36602e-06	5.24658e-06
0.25	-0.180949	-0.0873521	-0.0192582	0.923183	1.05216	-0.345951	0.889614	0.0427171	-0.222856	-0.79622	0.164833	-0.1	-0.00207031	-0.26313	-0.09248	-0.57458	-0.414332	-0.0420491	0.1	-0.00152637	0.0564213	0.103609	-0.189015	-0.96138	-0.303893	-0.47043	1.7595	1.59456	5.73056e-06	8.11363e-06	-0.219223	-0.244238	0.170878	2.38199	1.66937	9.36602e-06	5.24658e-06
0.26	-0.177741	-0.0740445	-0.0206374	0.925999	1.05464	-0.347956	0.846442	0.0355065	-0.240076	-0.657911	0.131842	-0.1	-0.00207031	-0.280045	-0.0789878	-0.559549	-0.45855	-0.0607616	0.1	-0.00152637	0.0585427	0.0976307	-0.18666	-0.96999	-0.287621	-0.472331	1.78167	1.59105	5.73056e-06	8.11363e-06	-0.220524	-0.244467	0.190708	2.39965	1.68027	9.36602e-06	5.24658e-06
